# xmcd
#
# Track frame offsets:
#	150
#	41187
#	61380
#
# Disc length: 2140 seconds
# Revision: 0
# Processed by: cddbd v1.5.2PL0 Copyright (c) Steve Scherf et al.
# Submitted via: dBpowerAMP V12.0
#
DISCID=25085a03
DTITLE=Lucretia West - Mahler: Symphony No. 3 [Barbirolli, 69]
DYEAR=1969
DGENRE=Symphony (Classical)
TTITLE0=IV. Sehr Langsam. Misterioso. Durchaus ppp [Friedrich Nietzsche]
TTITLE1=V. Lustig im Tempo und keck in Ausdruck [Das Knaben Wunderhorn]
TTITLE2=VI. Langsam. Ruhevoll. Emphfunden
EXTD=
EXTT0=
EXTT1=
EXTT2=
PLAYORDER=
